<svg width="1350" height="889" viewBox="0 0 1350 889" fill="none" xmlns="http://www.w3.org/2000/svg">
<path fill-rule="evenodd" clip-rule="evenodd" d="M409.211 44.0058C412.427 43.5059 415.579 43.0156 419.107 42.4695C420.64 48.5616 422.132 54.2799 423.517 60.0225C428.037 78.7721 430.982 97.762 431.348 117.06C432.212 162.457 419.269 203.461 391.942 239.854C376.946 259.824 358.864 276.673 339.002 291.556C320.229 305.622 300.971 319.044 281.807 332.582C262.406 346.288 242.951 359.917 224.87 375.375C207.171 390.508 190.968 407.018 178.119 426.583C173.153 434.143 168.638 441.954 165.047 450.939C167.631 450.538 169.793 450.255 171.933 449.864C189.745 446.604 207.693 444.471 225.755 443.25C244.955 441.949 264.16 441.471 283.392 442.517C309.018 443.91 334.31 447.337 358.797 455.339C376.264 461.048 392.606 468.939 406.476 481.31C413.614 487.676 419.521 495.023 424.082 503.435C439.503 531.879 443.416 561.954 436.324 593.404C433.998 603.729 431.079 613.955 427.814 624.023C424.039 635.666 417.835 646.165 410.846 656.17C394.283 679.878 373.613 699.39 349.762 715.584C317.345 737.598 281.671 751.561 243.085 758.025C218.858 762.085 194.449 763.33 169.987 760.738C91.7409 752.457 31.7391 700.895 9.75151 633.755C-4.80255 589.315 -2.47351 545.415 15.562 502.416C19.7567 492.416 25.3318 482.994 30.2931 473.317C30.7371 472.453 31.3558 471.676 32.1467 470.475C36.994 473.15 41.7515 475.773 46.8293 478.572C46.3053 480.591 45.8783 482.48 45.3203 484.331C38.9106 505.603 35.383 527.282 36.2419 549.556C37.3312 577.788 45.5265 603.472 63.9186 625.372C76.0539 639.823 91.1441 650.34 108.246 658.083C125.383 665.837 143.416 670.286 162.029 672.628C178.624 674.716 195.237 675.441 211.951 674.344C242.175 672.359 271.062 665.104 298.625 652.626C322.619 641.763 344.543 627.666 363.974 609.814C377.9 597.021 390.253 582.917 399.307 566.167C400.314 564.301 401.015 562.252 402.17 560.492C404.463 556.995 403.356 554.395 400.775 551.551C394.394 544.524 386.774 539.26 378.392 535.017C364.41 527.947 349.48 523.702 334.201 520.651C305.799 514.979 277.055 513.358 248.153 513.624C227.065 513.821 206.068 515.168 185.169 518.013C182.649 518.355 180.062 518.469 177.634 519.146C171.772 520.775 166.416 519.127 161.175 516.899C153.368 513.578 146.864 508.423 141.238 502.115C130.585 490.171 123.721 476.157 119.114 460.987C109.313 428.714 108.818 396.421 119.439 364.21C125.837 344.81 136.74 328.111 150.338 313.034C166.209 295.433 183.888 279.775 202.513 265.232C227.364 245.834 252.6 226.932 277.622 207.755C301.194 189.69 324.603 171.421 346.198 150.965C361.739 136.239 376.194 120.56 387.963 102.585C397.26 88.3884 404.387 73.2383 407.439 56.4012C408.165 52.4013 408.599 48.348 409.211 44.0058Z" fill="#089908"/>
<path fill-rule="evenodd" clip-rule="evenodd" d="M933.642 784.41C932.455 783.434 931.259 782.468 930.078 781.48C908.512 763.401 886.983 745.28 865.343 727.295C862.909 725.275 862.036 723.215 862.041 720.093C862.123 647.67 862.111 575.247 862.097 502.824C862.094 485.708 862.004 468.591 860.064 451.551C858.363 436.609 855.682 421.893 849.813 407.937C846.672 400.462 842.707 393.481 837.081 387.54C830.347 380.428 822.2 375.999 812.549 374.241C810.688 373.902 809.356 374.125 807.961 375.45C804.577 378.661 801.086 381.761 797.578 384.838C796.314 385.948 795.629 387.166 795.77 388.884C795.874 390.149 795.787 391.428 795.787 392.702C795.787 489.739 795.787 586.773 795.787 683.81C795.787 685.783 795.787 687.759 795.787 689.672C792.599 690.579 731.132 690.929 723.284 690.143C722.408 686.91 721.971 62.8136 722.861 51.3794C746.787 34.5375 770.886 17.5719 795.809 0.026123C795.809 116.075 795.809 231.092 795.809 346.106C796.098 346.24 796.386 346.373 796.675 346.509C812.59 332.179 828.5 317.847 844.59 303.36C851.085 305.306 857.315 307.845 863.341 310.937C884.992 322.046 900.686 338.975 911.732 360.451C920.286 377.081 925.301 394.855 928.702 413.141C933.275 437.716 934.493 462.579 934.52 487.491C934.629 584.951 934.566 682.414 934.566 779.874C934.566 781.245 934.566 782.616 934.566 783.988C934.26 784.124 933.952 784.267 933.642 784.41Z" fill="#089908"/>
<path fill-rule="evenodd" clip-rule="evenodd" d="M1055.24 550.597C1052.67 579.441 1059.25 603.78 1087.53 621.494C1100.25 629.467 1114.29 634.141 1128.78 637.624C1134.27 638.945 1139.83 639.969 1145.28 641.437C1147.75 642.1 1149.53 641.634 1151.52 640.187C1165.92 629.714 1180.4 619.331 1194.85 608.923C1196.21 607.945 1197.6 606.999 1199.39 605.749C1204.02 611.251 1208.54 616.61 1213.22 622.168C1212.18 623.227 1211.36 624.159 1210.45 624.993C1183.31 649.796 1156.16 674.582 1129.06 699.407C1127.31 701.006 1125.78 702.052 1123.12 701.497C1096.77 696.009 1070.85 689.262 1046.78 676.781C1026.6 666.323 1009.38 652.481 997.096 633.037C986.511 616.282 981.237 597.824 979.725 578.211C979.281 572.439 979.162 566.628 979.158 560.835C979.114 511.76 979.177 462.686 979.046 413.614C979.034 409.979 980.213 407.687 982.857 405.333C1019.93 372.343 1056.9 339.245 1093.91 306.177C1094.95 305.243 1096.03 304.345 1097.19 303.347C1108.67 306.838 1119.43 311.731 1129.43 318.201C1163.5 340.259 1182.17 371.729 1185.97 412.003C1188.37 437.471 1186.47 462.594 1178.18 486.97C1169.57 512.277 1154.75 532.855 1131.96 547.398C1125.73 551.379 1119.56 553.716 1111.82 553.029C1096.76 551.694 1081.63 551.311 1066.52 550.612C1062.87 550.451 1059.21 550.597 1055.24 550.597ZM1062.35 373.848C1060.7 375.285 1059.31 376.703 1057.72 377.853C1055.45 379.504 1054.73 381.557 1054.74 384.367C1054.82 428.354 1054.79 472.341 1054.8 516.331C1054.8 517.697 1054.97 519.059 1055.08 520.828C1058.17 520.828 1060.97 520.76 1063.77 520.84C1073.68 521.132 1081.93 517.323 1089.01 510.654C1094.23 505.731 1098.02 499.78 1100.91 493.263C1108.21 476.836 1110.13 459.553 1108.78 441.808C1107.33 422.85 1100.41 406.149 1087.7 391.955C1080.72 384.166 1072.45 378.11 1062.35 373.848Z" fill="#089908"/>
<path fill-rule="evenodd" clip-rule="evenodd" d="M596.584 304.197C611.91 309.631 625.386 317.937 636.949 329.281C651.986 344.033 661.984 361.933 669.165 381.542C676.198 400.758 680.454 420.641 682.707 440.924C684.161 453.982 685.184 467.101 685.949 480.22C686.914 496.775 685.483 513.297 684.224 529.787C682.868 547.553 680.602 565.22 676.87 582.669C672.448 603.358 666.256 623.418 655.574 641.852C643.575 662.563 626.881 677.932 604.733 687.441C595.774 691.288 586.652 691.73 577.321 690.759C540.905 686.98 514.153 667.954 495.019 637.542C481.629 616.263 476.098 592.63 476.066 567.662C475.996 510.673 476.047 453.684 476.013 396.695C476.013 394.445 476.428 392.802 478.451 391.309C517.256 362.722 555.993 334.046 594.752 305.393C595.308 304.981 595.917 304.631 596.584 304.197ZM585.625 657.148C589.619 653.629 592.431 649.512 594.308 644.942C596.933 638.561 599.457 632.073 601.245 625.42C606.448 606.096 608.295 586.234 609.661 566.347C611.347 541.796 611.648 517.199 611.49 492.598C611.34 469.208 609.19 446.031 603.828 423.221C600.944 410.949 597.237 398.954 591.201 387.799C587.882 381.666 584.082 375.838 578.468 371.579C575.698 369.477 572.474 367.921 569.322 366.39C567.333 365.424 565.38 365.7 563.473 367.307C559.8 370.397 556.01 373.38 552.036 376.064C549.251 377.943 548.436 380.178 548.441 383.46C548.536 439.298 548.458 495.137 548.555 550.973C548.572 561 548.875 571.048 549.63 581.043C550.751 595.865 553.247 610.486 557.978 624.646C560.406 631.913 563.48 638.886 568.034 645.105C572.413 651.085 577.809 655.653 585.625 657.148Z" fill="#089908"/>
<path fill-rule="evenodd" clip-rule="evenodd" d="M1303.64 690.254C1291.97 685.087 1281.46 678.068 1272.14 669.25C1256.66 654.605 1246.65 636.617 1240.05 616.554C1234.17 598.705 1231.19 580.303 1230.03 561.614C1229.37 550.752 1229.12 539.85 1229.11 528.966C1229.05 396.71 1229.07 264.455 1229.07 132.198C1229.07 130.366 1229.07 128.531 1229.07 126.366C1253.15 109.963 1277.26 93.5363 1302.2 76.5439C1302.2 79.2866 1302.2 81.0608 1302.2 82.8351C1302.2 229.235 1302.21 375.637 1302.2 522.039C1302.2 538.182 1302.76 554.289 1305.48 570.237C1307.46 581.854 1310.33 593.208 1316.33 603.528C1319.05 608.227 1322.43 612.343 1326.86 615.569C1331.1 618.654 1335.85 620.273 1341.02 620.722C1343.81 620.964 1346.69 621.256 1349.28 618.27C1349.5 619.841 1349.74 620.717 1349.74 621.593C1349.77 630.644 1349.73 639.697 1349.78 648.748C1349.79 650.685 1349.43 652.202 1347.81 653.561C1333.46 665.51 1319.2 677.543 1304.9 689.543C1304.59 689.808 1304.18 689.956 1303.64 690.254Z" fill="#089908"/>
<path fill-rule="evenodd" clip-rule="evenodd" d="M272.663 792.992C289.078 809.46 305.03 825.467 321.384 841.875C305.411 857.435 289.28 873.146 273.481 888.531C257.532 872.646 241.859 857.03 225.893 841.127C241.34 825.227 256.962 809.152 272.663 792.992Z" fill="#089908"/>
<path fill-rule="evenodd" clip-rule="evenodd" d="M222.194 841.559C205.728 857.518 189.619 873.136 173.878 888.393C157.973 872.75 142.211 857.243 126.077 841.377C141.599 825.339 157.172 809.249 173.124 792.767C189.463 809.009 205.624 825.081 222.194 841.559Z" fill="#089908"/>
<path fill-rule="evenodd" clip-rule="evenodd" d="M1004.51 223.898C1020.1 208.107 1035.65 192.34 1051.55 176.234C1067.86 192.282 1083.94 208.097 1100.42 224.303C1084.12 240.155 1067.98 255.856 1052.15 271.258C1036.18 255.387 1020.5 239.795 1004.51 223.898Z" fill="#089908"/>
<path fill-rule="evenodd" clip-rule="evenodd" d="M626.633 271.27C610.864 255.518 595.291 239.96 579.352 224.036C594.864 208.315 610.488 192.483 626.517 176.241C642.767 192.223 658.835 208.027 674.874 223.798C673.311 226.546 632.061 267.088 626.633 271.27Z" fill="#089908"/>
<path fill-rule="evenodd" clip-rule="evenodd" d="M1148.91 271.285C1133.12 255.518 1117.54 239.97 1101.56 224.014C1117.05 208.303 1132.66 192.461 1148.67 176.219C1165 192.236 1181.1 208.017 1197.17 223.769C1195.57 226.708 1156.68 264.948 1148.91 271.285Z" fill="#089908"/>
<path fill-rule="evenodd" clip-rule="evenodd" d="M527.448 271.181C511.414 255.414 495.722 239.982 479.666 224.196C495.322 208.255 510.907 192.381 526.769 176.229C543.21 192.35 559.324 208.15 575.8 224.305C559.487 240.121 543.385 255.729 527.448 271.181Z" fill="#089908"/>
</svg>
